<?xml version="1.0" encoding="UTF-8" standalone="no"?>
<svg
   xmlns:osb="http://www.openswatchbook.org/uri/2009/osb"
   xmlns:dc="http://purl.org/dc/elements/1.1/"
   xmlns:cc="http://creativecommons.org/ns#"
   xmlns:rdf="http://www.w3.org/1999/02/22-rdf-syntax-ns#"
   xmlns:svg="http://www.w3.org/2000/svg"
   xmlns="http://www.w3.org/2000/svg"
   xmlns:xlink="http://www.w3.org/1999/xlink"
   width="240"
   height="240"
   viewBox="0 0 63.499999 63.500002"
   version="1.1"
   id="svg106">
  <defs
     id="defs100">
    <linearGradient
       id="linearGradient3288">
      <stop
         style="stop-color:#000000;stop-opacity:1;"
         offset="0"
         id="stop3284" />
      <stop
         style="stop-color:#000000;stop-opacity:0;"
         offset="1"
         id="stop3286" />
    </linearGradient>
    <linearGradient
       id="linearGradient3260">
      <stop
         style="stop-color:#e6e6e6;stop-opacity:1;"
         offset="0"
         id="stop3256" />
      <stop
         style="stop-color:#e6e6e6;stop-opacity:0;"
         offset="1"
         id="stop3258" />
    </linearGradient>
    <linearGradient
       id="linearGradient2962"
       osb:paint="solid">
      <stop
         style="stop-color:#060307;stop-opacity:1;"
         offset="0"
         id="stop2960" />
    </linearGradient>
    <linearGradient
       xlink:href="#linearGradient3260"
       id="linearGradient3262"
       x1="1.1339283"
       y1="31.93899"
       x2="61.988092"
       y2="31.93899"
       gradientUnits="userSpaceOnUse" />
    <radialGradient
       xlink:href="#linearGradient3288"
       id="radialGradient3298"
       cx="31.56101"
       cy="31.93899"
       fx="31.56101"
       fy="31.93899"
       r="31.745083"
       gradientTransform="matrix(1,0,0,0.98214013,0,0.57042636)"
       gradientUnits="userSpaceOnUse" />
  </defs>
  <metadata
     id="metadata103">
    <rdf:RDF>
      <cc:Work
         rdf:about="">
        <dc:format>image/svg+xml</dc:format>
        <dc:type
           rdf:resource="http://purl.org/dc/dcmitype/StillImage" />
        <dc:title></dc:title>
      </cc:Work>
    </rdf:RDF>
  </metadata>
  <g
     id="layer1">
    <ellipse
       style="opacity:1;fill:url(#linearGradient3262);fill-opacity:1;stroke:url(#radialGradient3298);stroke-width:2.636;stroke-miterlimit:4;stroke-dasharray:none;stroke-opacity:1"
       id="path3209"
       cx="31.56101"
       cy="31.93899"
       rx="30.427082"
       ry="29.860119" />
    <rect
       style="opacity:1;fill:none;fill-opacity:1;stroke:#333333;stroke-width:0.565;stroke-opacity:1;stroke-miterlimit:4;stroke-dasharray:none"
       id="rect3207"
       width="61.988094"
       height="61.988094"
       x="0.75595242"
       y="0.94494045" />
    <path
       style="fill:#0000ff;stroke:#000000;stroke-width:0.496346px;stroke-linecap:butt;stroke-linejoin:miter;stroke-opacity:1"
       d="m 35.961793,19.132657 2.847165,-4.823632 c 0,0 1.323347,-0.963017 -0.06682,-1.686348 -1.390183,-0.723337 -2.432802,-1.084999 -4.518058,-0.723337 -2.085256,0.361669 -3.452357,0.678373 -6.25575,0.723337 -2.44626,0.03924 -4.170511,0 -5.560675,-0.361668 -1.390183,-0.361669 -3.127893,-0.361669 -3.127893,-0.361669 0,0 -1.390165,0 -1.390165,2.53166 0,2.53166 -0.347546,1.446666 0,5.424988 0.347546,3.978321 0.347546,6.148317 0,7.594979 -0.347546,1.44666 -1.042619,2.531659 -0.347546,3.25499 0.695092,0.723331 2.085256,-0.723331 4.170512,-1.80833 2.085256,-1.084993 1.781774,-0.817825 3.822966,-1.44666 3.068126,-0.945205 4.48789,-1.872807 6.603295,-1.808329 2.085256,0.06356 2.509426,-0.260349 4.076018,-0.299791 1.295671,-0.03262 2.038009,0.16142 2.874841,1.384789 0.695074,3.25499 0,2.531659 0,6.509981 0,3.978321 -0.347545,2.531659 -0.347545,6.509981 0,3.978324 0.09463,4.54044 -2.780348,4.701655 -6.949326,0.389684 -5.908222,-0.361667 -9.036097,-0.723331 -3.127874,-0.361667 -2.780328,-0.361667 -4.518038,-1.084998 -1.73771,-0.72333 -1.96508,-2.00878 -1.96508,-2.00878 l -0.147094,-2.036358 1.617534,-1.835909 3.274968,-0.990601 -1.042618,3.254991 2.432783,-1.808329 3.127893,1.808329 -0.347546,-2.893323 2.513059,-2.515745 -3.609054,0.200452 -0.347546,-3.510598 -1.684334,2.932564 -2.887522,-1.00652 1.229611,1.930301 c 0,0 -2.298689,0.161217 -3.889324,0.483643 -0.989261,0.121974 -1.176254,0.263011 -2.098696,1.124235 -2.111137,1.971031 -2.619795,3.066199 -1.911264,4.874528 0.842186,2.142416 2.900524,4.206353 2.900524,4.206353 0,0 1.5897,1.069078 2.766889,1.580297 4.35139,1.889682 4.23731,2.358789 9.450459,1.997121 5.21313,-0.361663 4.545647,-0.776327 7.645914,-0.361663 3.996519,0.534539 4.464699,-0.628938 4.464699,-0.628938 0,0 1.135895,-0.75517 0.748431,-4.79605 -0.186994,-2.504079 -0.347527,-0.72333 -0.347527,-3.978321 0,-3.25499 0,-7.233315 0.695072,-9.764976 0.695092,-2.531658 1.178526,-4.377702 0,-5.786649 -0.962317,-1.150466 -1.73771,-0.723332 -3.822965,-0.723332 -2.085238,0 -2.739513,0.01592 -4.170494,0 -4.30907,-0.04794 -3.970059,-0.322427 -6.255767,0 -2.185511,0.308293 -2.432802,0.361668 -4.170512,1.084999 -1.737711,0.723331 -3.127875,0.723331 -3.127875,0.723331 L 23.10273,22.025979 c 0,0 -0.412882,-0.911208 -0.467722,-2.398025 -0.05336,-1.44666 -0.574896,-3.026957 2.205432,-3.026957 2.780348,0 3.127893,-0.361668 5.213131,-0.361668 2.085256,0 2.085256,-0.723331 3.475439,0.361668 1.390164,1.084998 2.432783,2.53166 2.432783,2.53166 z"
       id="path3414" />
  </g>
  <g
     id="layer2" />
</svg>
