<?xml version="1.0" encoding="UTF-8" standalone="no"?>
<svg
   xmlns:osb="http://www.openswatchbook.org/uri/2009/osb"
   xmlns:dc="http://purl.org/dc/elements/1.1/"
   xmlns:cc="http://creativecommons.org/ns#"
   xmlns:rdf="http://www.w3.org/1999/02/22-rdf-syntax-ns#"
   xmlns:svg="http://www.w3.org/2000/svg"
   xmlns="http://www.w3.org/2000/svg"
   xmlns:xlink="http://www.w3.org/1999/xlink"
   width="240"
   height="240"
   viewBox="0 0 63.499999 63.500002"
   version="1.1"
   id="svg106">
  <defs
     id="defs100">
    <linearGradient
       id="linearGradient3288">
      <stop
         style="stop-color:#000000;stop-opacity:1;"
         offset="0"
         id="stop3284" />
      <stop
         style="stop-color:#000000;stop-opacity:0;"
         offset="1"
         id="stop3286" />
    </linearGradient>
    <linearGradient
       id="linearGradient2962"
       osb:paint="solid">
      <stop
         style="stop-color:#060307;stop-opacity:1;"
         offset="0"
         id="stop2960" />
    </linearGradient>
    <filter
       style="color-interpolation-filters:sRGB"
       id="filter3096"
       x="-0.0095900006"
       width="1.01918"
       y="-0.0099981066"
       height="1.0199962">
      <feGaussianBlur
         stdDeviation="0.059204203"
         id="feGaussianBlur3098" />
    </filter>
    <filter
       style="color-interpolation-filters:sRGB"
       id="filter3096-8"
       x="-0.0095900008"
       width="1.0191801"
       y="-0.0099981064"
       height="1.0199962">
      <feGaussianBlur
         stdDeviation="0.059204203"
         id="feGaussianBlur3098-9" />
    </filter>
    <filter
       style="color-interpolation-filters:sRGB"
       id="filter3096-4"
       x="-0.0095900008"
       width="1.0191801"
       y="-0.0099981064"
       height="1.0199962">
      <feGaussianBlur
         stdDeviation="0.059204203"
         id="feGaussianBlur3098-91" />
    </filter>
    <filter
       style="color-interpolation-filters:sRGB"
       id="filter3096-6"
       x="-0.0095900008"
       width="1.0191801"
       y="-0.0099981064"
       height="1.0199962">
      <feGaussianBlur
         stdDeviation="0.059204203"
         id="feGaussianBlur3098-7" />
    </filter>
    <filter
       style="color-interpolation-filters:sRGB"
       id="filter3096-5"
       x="-0.0095900008"
       width="1.0191801"
       y="-0.0099981064"
       height="1.0199962">
      <feGaussianBlur
         stdDeviation="0.059204203"
         id="feGaussianBlur3098-4" />
    </filter>
    <filter
       style="color-interpolation-filters:sRGB"
       id="filter3096-9"
       x="-0.0095900008"
       width="1.0191801"
       y="-0.0099981064"
       height="1.0199962">
      <feGaussianBlur
         stdDeviation="0.059204203"
         id="feGaussianBlur3098-8" />
    </filter>
    <radialGradient
       xlink:href="#linearGradient3288"
       id="radialGradient3298"
       cx="31.56101"
       cy="31.93899"
       fx="31.56101"
       fy="31.93899"
       r="31.745083"
       gradientTransform="matrix(1,0,0,0.98214013,0,0.57042636)"
       gradientUnits="userSpaceOnUse" />
  </defs>
  <metadata
     id="metadata103">
    <rdf:RDF>
      <cc:Work
         rdf:about="">
        <dc:format>image/svg+xml</dc:format>
        <dc:type
           rdf:resource="http://purl.org/dc/dcmitype/StillImage" />
        <dc:title></dc:title>
      </cc:Work>
    </rdf:RDF>
  </metadata>
  <g
     id="layer1">
    <rect
       style="opacity:1;fill:#1a1a1a;fill-opacity:1;stroke:#333333;stroke-width:0.565;stroke-opacity:1;stroke-miterlimit:4;stroke-dasharray:none"
       id="rect3207"
       width="61.988094"
       height="61.988094"
       x="0.75595242"
       y="0.94494045" />
    <ellipse
       style="opacity:1;fill:#e6e6e6;fill-opacity:1;stroke:url(#radialGradient3298);stroke-width:2.636;stroke-miterlimit:4;stroke-dasharray:none;stroke-opacity:1"
       id="path3209"
       cx="31.56101"
       cy="31.93899"
       rx="30.427082"
       ry="29.860119" />
    <path
       style="opacity:1;mix-blend-mode:normal;fill:#0000ff;fill-opacity:1;stroke:none;stroke-width:0.264583;stroke-opacity:1;filter:url(#filter3096)"
       id="path90"
       d="m 1.7840476,18.913928 -1.74146592,5.119869 -2.28317178,-4.902335 -5.4074273,-0.07411 3.9568588,-3.68633 -1.6005079,-5.165669 4.72864491,2.624057 L 3.8552374,9.7109612 2.820842,15.019048 7.1519841,18.257407 Z"
       transform="rotate(-31.399978,8.481372,-22.87555)" />
    <path
       style="opacity:1;mix-blend-mode:normal;fill:#0000ff;fill-opacity:1;stroke:none;stroke-width:0.264583;stroke-opacity:1;filter:url(#filter3096-8)"
       id="path90-7"
       d="m 1.7840476,18.913928 -1.74146592,5.119869 -2.28317178,-4.902335 -5.4074273,-0.07411 3.9568588,-3.68633 -1.6005079,-5.165669 4.72864491,2.624057 L 3.8552374,9.7109612 2.820842,15.019048 7.1519841,18.257407 Z"
       transform="rotate(-31.399978,36.12449,-13.518877)" />
    <path
       style="opacity:1;mix-blend-mode:normal;fill:#0000ff;fill-opacity:1;stroke:none;stroke-width:0.264583;stroke-opacity:1;filter:url(#filter3096-4)"
       id="path90-4"
       d="m 1.7840476,18.913928 -1.74146592,5.119869 -2.28317178,-4.902335 -5.4074273,-0.07411 3.9568588,-3.68633 -1.6005079,-5.165669 4.72864491,2.624057 L 3.8552374,9.7109612 2.820842,15.019048 7.1519841,18.257407 Z"
       transform="rotate(-31.399978,65.68387,-5.2101165)" />
    <path
       style="opacity:1;mix-blend-mode:normal;fill:#0000ff;fill-opacity:1;stroke:none;stroke-width:0.264583;stroke-opacity:1;filter:url(#filter3096-6)"
       id="path90-3"
       d="m 1.7840476,18.913928 -1.74146592,5.119869 -2.28317178,-4.902335 -5.4074273,-0.07411 3.9568588,-3.68633 -1.6005079,-5.165669 4.72864491,2.624057 L 3.8552374,9.7109612 2.820842,15.019048 7.1519841,18.257407 Z"
       transform="rotate(-31.399978,19.822076,-58.888478)" />
    <path
       style="opacity:1;mix-blend-mode:normal;fill:#0000ff;fill-opacity:1;stroke:none;stroke-width:0.264583;stroke-opacity:1;filter:url(#filter3096-5)"
       id="path90-45"
       d="m 1.7840476,18.913928 -1.74146592,5.119869 -2.28317178,-4.902335 -5.4074273,-0.07411 3.9568588,-3.68633 -1.6005079,-5.165669 4.72864491,2.624057 L 3.8552374,9.7109612 2.820842,15.019048 7.1519841,18.257407 Z"
       transform="rotate(-31.399978,48.795327,-50.319499)" />
    <path
       style="opacity:1;mix-blend-mode:normal;fill:#0000ff;fill-opacity:1;stroke:none;stroke-width:0.264583;stroke-opacity:1;filter:url(#filter3096-9)"
       id="path90-33"
       d="m 1.7840476,18.913928 -1.74146592,5.119869 -2.28317178,-4.902335 -5.4074273,-0.07411 3.9568588,-3.68633 -1.6005079,-5.165669 4.72864491,2.624057 L 3.8552374,9.7109612 2.820842,15.019048 7.1519841,18.257407 Z"
       transform="rotate(-31.399978,77.038554,-41.955722)" />
  </g>
  <g
     id="layer2" />
</svg>
