<?xml version="1.0" encoding="UTF-8" standalone="no"?>
<svg
   xmlns:osb="http://www.openswatchbook.org/uri/2009/osb"
   xmlns:dc="http://purl.org/dc/elements/1.1/"
   xmlns:cc="http://creativecommons.org/ns#"
   xmlns:rdf="http://www.w3.org/1999/02/22-rdf-syntax-ns#"
   xmlns:svg="http://www.w3.org/2000/svg"
   xmlns="http://www.w3.org/2000/svg"
   xmlns:xlink="http://www.w3.org/1999/xlink"
   width="240"
   height="240"
   viewBox="0 0 63.499999 63.500002"
   version="1.1"
   id="svg106">
  <defs
     id="defs100">
    <linearGradient
       id="linearGradient55">
      <stop
         style="stop-color:#d4aa00;stop-opacity:1;"
         offset="0"
         id="stop51" />
      <stop
         style="stop-color:#d45500;stop-opacity:1"
         offset="1"
         id="stop53" />
    </linearGradient>
    <linearGradient
       id="linearGradient3740">
      <stop
         style="stop-color:#ffcc00;stop-opacity:1;"
         offset="0"
         id="stop3736" />
      <stop
         style="stop-color:#ffcc00;stop-opacity:0;"
         offset="1"
         id="stop3738" />
    </linearGradient>
    <linearGradient
       id="linearGradient3288">
      <stop
         style="stop-color:#000000;stop-opacity:1;"
         offset="0"
         id="stop3284" />
      <stop
         style="stop-color:#000000;stop-opacity:0;"
         offset="1"
         id="stop3286" />
    </linearGradient>
    <linearGradient
       id="linearGradient2962"
       osb:paint="solid">
      <stop
         style="stop-color:#060307;stop-opacity:1;"
         offset="0"
         id="stop2960" />
    </linearGradient>
    <radialGradient
       xlink:href="#linearGradient3288"
       id="radialGradient3298"
       cx="31.56101"
       cy="31.93899"
       fx="31.56101"
       fy="31.93899"
       r="31.745083"
       gradientTransform="matrix(1,0,0,0.98214013,0,0.57042636)"
       gradientUnits="userSpaceOnUse" />
    <radialGradient
       xlink:href="#linearGradient3740"
       id="radialGradient3742"
       cx="33.089493"
       cy="31.864708"
       fx="33.089493"
       fy="31.864708"
       r="24.710861"
       gradientTransform="matrix(0.99995627,0.00935167,-0.01282635,1.3714975,0.14288539,-11.885204)"
       gradientUnits="userSpaceOnUse" />
    <linearGradient
       xlink:href="#linearGradient55"
       id="linearGradient57"
       x1="14.791009"
       y1="51.979836"
       x2="49.751461"
       y2="10.29916"
       gradientUnits="userSpaceOnUse" />
  </defs>
  <metadata
     id="metadata103">
    <rdf:RDF>
      <cc:Work
         rdf:about="">
        <dc:format>image/svg+xml</dc:format>
        <dc:type
           rdf:resource="http://purl.org/dc/dcmitype/StillImage" />
        <dc:title></dc:title>
      </cc:Work>
    </rdf:RDF>
  </metadata>
  <g
     id="layer1">
    <rect
       style="opacity:1;fill:#1a1a1a;fill-opacity:1;stroke:#333333;stroke-width:0.565;stroke-miterlimit:4;stroke-dasharray:none;stroke-opacity:1"
       id="rect3207"
       width="61.988094"
       height="61.988094"
       x="0.75595242"
       y="0.94494045" />
    <path
       style="fill:url(#linearGradient57);fill-opacity:1;stroke:#000000;stroke-width:0.105936;stroke-linecap:butt;stroke-linejoin:miter;stroke-miterlimit:4;stroke-dasharray:none;stroke-opacity:1"
       d="m 17.606194,29.907014 c -1.927236,-0.217584 -3.6403,-0.435183 -4.38978,-0.108797 -0.749479,0.326386 -1.820206,1.414357 -3.4261946,1.196767 L 8.1841863,30.777376 c 0,0 0.4282772,1.523152 1.6060331,1.74075 1.1777566,0.217583 0.8565096,1.523148 2.3554676,0.870372 1.49896,-0.652782 2.569686,-1.414356 3.426195,-0.979174 0.856554,0.435189 1.498937,0.543985 1.177756,1.087969 -0.321202,0.543983 -0.321202,0.652778 -0.963583,1.087963 -0.642473,0.435188 -0.856577,0.870368 -1.606057,0.870368 -0.749479,0 -1.498959,0.217607 -1.498959,0.217607 0,0 -0.428277,0.108798 0.535375,0.543979 0.963584,0.435186 1.60599,0.435186 2.248439,0.108799 0.642381,-0.326394 0.74948,-0.435188 1.713064,-0.108799 0.963584,0.326392 1.498958,0 1.820138,0.652777 0.321202,0.652779 0.535376,1.087967 -1.177758,1.414355 -1.713063,0.326394 -1.498935,0.108798 -2.569616,1.196763 -1.070683,1.087962 -1.606034,1.305555 -2.462543,2.17593 -0.856577,0.87037 -1.49896,0.761576 -1.284855,2.17592 0.21415,1.414357 0.21415,2.175931 0.21415,2.175931 0,0 0.642404,-0.979164 1.820161,-1.414356 1.177757,-0.435179 1.284787,-0.108798 2.141341,-1.087961 0.856555,-0.979164 0.107188,-0.652778 1.284854,-1.849534 1.177689,-1.196762 0.963583,-1.414355 1.927168,-1.740747 0.963652,-0.326387 1.177757,-1.196757 1.820208,-0.217583 0.642404,0.979168 1.070682,0.761576 -0.107188,1.849539 -1.177759,1.087963 -2.034333,2.175927 -2.034333,2.175927 h 1.284852 c 0,0 0.535307,-1.087964 1.177757,-1.196759 0.642382,-0.108797 2.462546,-0.870368 2.462546,-0.870368 l 0.321202,1.30555 c 0,0 -1.713063,1.523152 -2.24844,1.740749 -0.535308,0.217584 -1.391859,2.284725 -1.284788,2.828702 0.10696,0.543984 1.070684,1.305559 -0.428277,1.849544 -1.498957,0.54398 -1.927235,1.631947 -1.927235,1.631947 0,0 0,0.435182 1.070661,0.543982 1.070679,0.108809 1.820158,1.41435 2.569639,0.326388 0.74948,-1.087962 1.177755,-1.52315 1.391931,-2.284724 0.214149,-0.761578 -0.1072,-1.523153 0.214149,-2.067137 0.321203,-0.543977 0.107198,-1.196754 0.963585,-1.631945 0.856577,-0.435182 0.21415,-0.761576 1.284852,-0.870371 1.070685,-0.108797 1.391863,-1.305558 1.713064,0 0.321247,1.305562 0.749482,0.65278 0,2.067136 -0.74948,1.414355 -1.498956,2.284724 -0.428208,1.958333 1.070659,-0.326387 2.248416,0.108798 2.248416,-0.870373 0,-0.979167 -0.214149,-0.979167 0.214149,-1.740741 0.428279,-0.761575 0,-1.196762 0.749457,-1.52315 0.74948,-0.326395 0.74948,-0.979165 0.856578,0.326388 0.106959,1.305558 -0.1072,1.523148 0.214149,2.611118 0.321205,1.087961 0.214151,1.305551 0.535379,2.502316 0.321176,1.196762 0.856483,0.870372 0.214149,2.067135 -0.642382,1.196757 -0.963586,0.979165 -0.428279,2.067129 0.535354,1.087967 0.535354,1.414353 1.070662,1.414353 0.535373,0 1.284852,0.217608 1.606055,-0.870371 0.321179,-1.087962 0.321179,-1.305559 0.535353,-2.719907 0.21415,-1.414354 0.535307,-1.305559 -0.21415,-2.61112 -0.749458,-1.305558 -1.177757,-1.196755 -0.856489,-2.067134 0.321181,-0.870371 -0.642449,-0.761574 0.428212,-1.087961 1.070748,-0.326386 0.96365,-0.65278 1.713131,0.326387 0.749479,0.979173 0,1.087968 0.642405,1.958337 0.642381,0.870371 0.749456,1.414356 1.177756,1.631947 0.428277,0.217583 0.856554,1.305558 0.428277,-0.108798 -0.428277,-1.414357 0.107188,-1.631946 -0.107199,-2.393522 -0.21415,-0.761576 -0.749479,-0.87037 -0.856557,-1.740743 -0.106959,-0.870376 -0.642379,-0.761574 0.10696,-1.414354 0.749479,-0.652778 0.3212,-1.414354 1.07068,0.217583 0.749482,1.631945 0.428279,2.175928 1.284857,2.393521 0.856554,0.217583 0.214149,-0.435182 1.713063,0.870371 1.498958,1.30556 2.034311,2.067134 2.034311,2.067134 l 0.321202,0.435188 0.856554,0.108798 c 0,0 0.321202,0 0.535307,-1.305559 0.21415,-1.305558 0.107199,-0.87037 -0.642383,-1.740743 -0.749478,-0.87037 -0.428276,-0.326394 -1.284853,-1.196762 -0.856486,-0.87037 -0.642382,-0.761576 -1.498959,-1.414355 -0.856487,-0.652782 -1.070659,-0.217584 -1.284764,-1.087961 -0.214149,-0.870372 -0.321201,-0.652782 -0.321201,-1.305561 0,-0.652777 -1.927237,-1.740739 0,-0.870367 1.927235,0.870367 1.498959,1.087958 2.783744,1.19676 1.284832,0.108798 0.642449,0.870371 1.498936,0.108798 0.856578,-0.761575 1.927236,-0.326394 0.856578,-1.087967 -1.070682,-0.761574 -0.535376,-0.543977 -1.606058,-0.870372 -1.070658,-0.326385 -1.498936,-0.652778 -1.498936,-0.652778 0,0 -0.535305,0.108799 -0.428299,-0.543977 0.107199,-0.65278 0.535374,-1.305559 0.535374,-1.305559 0,0 0,-0.979168 1.177758,-0.217584 1.177756,0.761578 1.498958,0.652774 1.927235,1.196759 0.428278,0.543985 0.106958,0.761575 1.070682,1.087968 0.963584,0.326386 1.177756,0.543978 1.606034,0.543978 0.428232,0 2.034266,-0.326388 2.034266,-0.326388 0,0 0.74948,0.543985 1.177756,0.870373 0.428276,0.326386 0.856555,1.196759 1.284854,1.631943 0.42821,0.435188 0.749481,0.870371 0.963585,0.435188 0.214149,-0.435188 1.177757,-0.652779 0.321202,-2.175929 -0.856577,-1.523148 -0.107199,-1.305558 -1.498959,-2.067133 -1.391884,-0.761576 -1.820161,-1.087963 -2.783745,-1.196759 -0.963652,-0.108797 -1.713131,0.761578 -2.569687,0 -0.856509,-0.761573 -0.428232,0 -1.391861,-1.087967 -0.963606,-1.08796 -1.177779,-0.435182 -1.284784,-1.414355 -0.1072,-0.979165 -0.749482,-1.740742 0.321178,-1.305552 1.070683,0.435181 0.642405,0.870369 2.141364,0.979165 1.498936,0.108799 1.606034,0.979166 2.03431,0.108799 0.428232,-0.870372 0.963585,-1.196764 -0.321247,-1.414356 -1.284787,-0.217582 -2.141364,-0.543985 -2.56964,-0.761575 -0.428277,-0.217583 -1.713064,-0.543983 -1.070659,-0.87037 0.642382,-0.326388 0.963629,-0.652779 2.676715,0.108797 1.713063,0.761575 1.713063,0.761575 3.104993,0.87037 1.391862,0.108799 1.713063,0.108799 3.426194,-0.217583 1.713064,-0.326388 0.721735,0.09213 1.820138,-0.435188 l 1.93689,-0.929877 -0.759119,-0.81085 c 0,0 -0.107326,-0.326156 -1.820207,-0.652777 -2.705436,-0.51589 -3.533226,1.196762 -4.068577,0.97917 -0.535307,-0.217605 -0.85651,-0.543983 -2.355469,-1.087968 -1.498957,-0.543984 0,-1.196757 -2.46261,-0.761575 -2.462543,0.435188 -2.997898,0.326395 -2.783723,-0.652777 0.21415,-0.979168 0,-1.196757 0.856487,-1.305555 0.856577,-0.108798 0.107198,0.652774 1.606056,-0.32639 1.498959,-0.979169 1.606034,-1.196759 2.462543,-0.761579 0.856554,0.43519 2.141409,1.087969 2.248415,-0.108798 0.1072,-1.196763 -1.070659,-1.087962 -1.713063,-1.087962 -0.642381,0 -2.248415,0 -2.997895,0.108799 -0.749479,0.108798 -0.321202,0.543976 -1.498959,0.217583 -1.177759,-0.326386 -2.034334,0.761575 -1.391884,-0.217583 0.642405,-0.979173 0.321204,-0.761577 0.963608,-1.087968 0.64238,-0.326388 0,0.543982 2.03431,-0.435183 2.034267,-0.979174 2.248439,-1.087969 2.89082,-2.393522 0.642404,-1.305559 0.535376,-1.196766 1.070681,-1.849543 0.535376,-0.652781 0.963654,-0.543984 1.713133,-0.870372 0.749478,-0.326386 1.391861,-0.870371 0.856486,-1.196762 -0.535307,-0.326387 -1.284763,-0.652773 -2.248415,-0.652773 -0.963584,0 -2.248438,0.326386 -2.676717,0.652773 -0.42823,0.326391 -1.391883,1.305559 -2.034265,1.631949 -0.642381,0.326388 -1.177757,0.761576 -1.927236,0.979169 -0.749479,0.217584 -1.284855,0.108797 -1.927236,0.43518 -0.642404,0.326395 -1.606035,0.435191 -1.606035,0.435191 h -0.535307 c 0,0 -0.107188,-0.435191 0.535307,-1.196766 0.642451,-0.761573 0.428277,-1.305551 0.856555,-1.631945 0.428278,-0.326387 0.963651,-1.52315 1.284855,-1.958333 0.321179,-0.435187 0.963581,-1.414353 0.963581,-1.414353 l -2.46254,1.087965 c 0,0 -1.070682,1.523146 -2.034333,2.284721 -0.963585,0.761575 -0.963585,1.305562 -1.391862,1.305562 -0.428278,0 -1.498959,1.087958 -1.070682,0 0.428277,-1.087964 0.642404,-2.284727 0.642404,-2.284727 l 0.214151,-1.305556 c 0,0 -0.106959,-0.870372 0.214149,-1.414359 0.321205,-0.543978 1.391863,-2.393518 1.391863,-2.393518 0,0 0.856578,-0.326387 0.856578,-1.523151 0,-1.1967606 -0.1072,-2.6111151 -0.1072,-2.6111151 0,0 -1.177755,0.7615748 -1.606033,1.0879608 -0.428232,0.3263937 -0.74948,0.8703723 -1.605988,1.7407523 -0.856555,0.870367 -1.606033,1.414349 -1.927237,2.175922 -0.321203,0.761577 -0.428277,1.958339 -0.321203,2.502323 0.106959,0.543976 -0.1072,1.849534 -0.642452,2.067131 -0.535305,0.217606 -1.284783,0.32639 -1.284783,0.32639 0,0 -0.535353,0.435182 -1.177756,-0.870373 -0.642382,-1.305557 -0.535352,-2.828709 -0.535352,-3.59028 0,-0.761576 -0.74948,-1.958341 -1.177713,-0.870372 -0.428277,1.087961 -0.642449,2.61111 -0.535351,3.046297 0.107187,0.435183 0.428277,1.849538 -0.321203,1.740741 -0.749478,-0.108797 -1.284853,-0.217582 -1.498959,-0.761572 -0.21415,-0.543986 -0.107198,-1.305559 0,-1.958335 0.107188,-0.652779 -0.428277,-2.067131 -0.963652,-2.284723 -0.535305,-0.217605 -1.391861,-0.761574 -1.498957,-1.196764 -0.106959,-0.43519 -0.963585,-1.8495388 -0.963585,-1.8495388 0,0 -1.177758,-1.0879686 -1.177758,-0.6527781 0,0.4351796 -0.428277,2.9375069 -0.428277,2.9375069 0,0 1.284832,1.414347 1.391929,2.067127 0.106959,0.652781 -0.214149,1.414356 -0.107188,2.067134 0.107188,0.652781 0.428301,1.631943 0.963608,2.067134 0.535348,0.435181 1.284828,0.979165 1.177755,1.414352 -0.1072,0.435185 0.107188,1.305558 -0.963583,1.414349 -1.070687,0.108798 -0.642478,0.326395 -1.927241,-0.543976 -1.284854,-0.870373 -2.034334,-1.740747 -2.034334,-1.740747 l -1.391862,-1.196759 -0.749478,-0.108799 c 0,0 0.428277,0.54398 1.07066,1.414357 0.642403,0.870371 0.749478,1.196758 1.177778,1.740743 0.428277,0.543984 1.177755,1.305558 1.177755,1.305558 0,0 0.535309,1.196759 -0.107187,1.196759 -0.64238,0 0.535376,0.652778 -1.498957,-0.108799 -2.034244,-0.761575 -2.676715,-2.067133 -2.676715,-2.067133 0,0 -0.32118,-0.979169 -1.07066,-1.196759 -0.74948,-0.217606 -0.963585,-0.217606 -1.927236,-0.108798 -0.963585,0.108798 -0.85651,0.217582 -1.498959,-0.217608 -0.642405,-0.435179 -1.927237,-1.849534 -1.927237,-1.849534 0,0 -0.9635833,0.87037 -0.106959,1.523148 0.856508,0.652781 -0.6424498,0.979169 1.07068,1.740743 1.713064,0.761574 1.391862,0.652781 2.248415,0.870371 0.856578,0.217606 0.535308,-0.326387 1.820163,0.543985 1.284853,0.870371 1.391861,1.414352 1.927235,1.740739 0.535308,0.326394 0.642405,0.217606 1.070682,0.543984 0.428278,0.326387 0.963584,1.196766 0.963584,1.196766 l 0.107188,1.087962 c 0,0 0.321202,0.326386 -0.749479,0.326386 -1.07066,0 -1.713064,0.108798 -2.783722,-0.326386 -1.070751,-0.43519 -1.713133,-0.870373 -2.141411,-0.870373 -0.428277,0 -1.284786,-0.652779 -1.07068,0.108799 0.21415,0.761576 0,1.523149 1.07068,1.849535 1.07066,0.326392 1.49896,0.435191 2.56962,0.543984 1.070748,0.108799 0.749479,-0.543984 1.391929,0.326395 0.642405,0.870369 0.856508,1.087959 0.856508,1.087959 l -0.428232,0.43519 z"
       id="path3669-7" />
    <ellipse
       style="opacity:1;fill:#ffff00;fill-opacity:1;stroke:#000000;stroke-width:0.065;stroke-linecap:round;stroke-linejoin:round;stroke-miterlimit:4;stroke-dasharray:none;stroke-opacity:1"
       id="path3591"
       cx="30.994049"
       cy="31.844494"
       rx="11.622767"
       ry="11.811756" />
  </g>
  <g
     id="layer2" />
</svg>
