<?xml version="1.0" encoding="UTF-8" standalone="no"?>
<svg
   xmlns:osb="http://www.openswatchbook.org/uri/2009/osb"
   xmlns:dc="http://purl.org/dc/elements/1.1/"
   xmlns:cc="http://creativecommons.org/ns#"
   xmlns:rdf="http://www.w3.org/1999/02/22-rdf-syntax-ns#"
   xmlns:svg="http://www.w3.org/2000/svg"
   xmlns="http://www.w3.org/2000/svg"
   xmlns:xlink="http://www.w3.org/1999/xlink"
   xmlns:sodipodi="http://sodipodi.sourceforge.net/DTD/sodipodi-0.dtd"
   xmlns:inkscape="http://www.inkscape.org/namespaces/inkscape"
   width="240"
   height="240"
   viewBox="0 0 63.499999 63.500002"
   version="1.1"
   id="svg106"
   inkscape:export-filename="C:\Users\boltej\Documents\stars-6.png"
   inkscape:export-xdpi="96"
   inkscape:export-ydpi="96"
   sodipodi:docname="sun.svg"
   inkscape:version="1.0.1 (3bc2e813f5, 2020-09-07)">
  <defs
     id="defs100">
    <linearGradient
       inkscape:collect="always"
       id="linearGradient3740">
      <stop
         style="stop-color:#ffcc00;stop-opacity:1;"
         offset="0"
         id="stop3736" />
      <stop
         style="stop-color:#ffcc00;stop-opacity:0;"
         offset="1"
         id="stop3738" />
    </linearGradient>
    <inkscape:path-effect
       effect="skeletal"
       id="path-effect3497"
       is_visible="true"
       lpeversion="1"
       pattern="M 0,5 C 0,2.24 2.24,0 5,0 7.76,0 10,2.24 10,5 10,7.76 7.76,10 5,10 2.24,10 0,7.76 0,5 Z"
       copytype="single_stretched"
       prop_scale="1"
       scale_y_rel="false"
       spacing="0"
       normal_offset="0"
       tang_offset="0"
       prop_units="false"
       vertical_pattern="false"
       hide_knot="false"
       fuse_tolerance="0" />
    <inkscape:path-effect
       effect="skeletal"
       id="path-effect3493"
       is_visible="true"
       lpeversion="1"
       pattern="M 0,5 C 0,2.24 2.24,0 5,0 7.76,0 10,2.24 10,5 10,7.76 7.76,10 5,10 2.24,10 0,7.76 0,5 Z"
       copytype="single_stretched"
       prop_scale="1"
       scale_y_rel="false"
       spacing="0"
       normal_offset="0"
       tang_offset="0"
       prop_units="false"
       vertical_pattern="false"
       hide_knot="false"
       fuse_tolerance="0" />
    <inkscape:path-effect
       effect="skeletal"
       id="path-effect3385"
       is_visible="true"
       lpeversion="1"
       pattern="M 0,5 C 0,2.24 2.24,0 5,0 7.76,0 10,2.24 10,5 10,7.76 7.76,10 5,10 2.24,10 0,7.76 0,5 Z"
       copytype="single_stretched"
       prop_scale="1"
       scale_y_rel="false"
       spacing="0"
       normal_offset="0"
       tang_offset="0"
       prop_units="false"
       vertical_pattern="false"
       hide_knot="false"
       fuse_tolerance="0" />
    <linearGradient
       inkscape:collect="always"
       id="linearGradient3288">
      <stop
         style="stop-color:#000000;stop-opacity:1;"
         offset="0"
         id="stop3284" />
      <stop
         style="stop-color:#000000;stop-opacity:0;"
         offset="1"
         id="stop3286" />
    </linearGradient>
    <linearGradient
       inkscape:collect="always"
       id="linearGradient3260">
      <stop
         style="stop-color:#e6e6e6;stop-opacity:1;"
         offset="0"
         id="stop3256" />
      <stop
         style="stop-color:#e6e6e6;stop-opacity:0;"
         offset="1"
         id="stop3258" />
    </linearGradient>
    <linearGradient
       id="linearGradient2962"
       osb:paint="solid">
      <stop
         style="stop-color:#060307;stop-opacity:1;"
         offset="0"
         id="stop2960" />
    </linearGradient>
    <linearGradient
       inkscape:collect="always"
       xlink:href="#linearGradient3260"
       id="linearGradient3262"
       x1="1.1339283"
       y1="31.93899"
       x2="61.988092"
       y2="31.93899"
       gradientUnits="userSpaceOnUse" />
    <radialGradient
       inkscape:collect="always"
       xlink:href="#linearGradient3288"
       id="radialGradient3298"
       cx="31.56101"
       cy="31.93899"
       fx="31.56101"
       fy="31.93899"
       r="31.745083"
       gradientTransform="matrix(1,0,0,0.98214013,0,0.57042636)"
       gradientUnits="userSpaceOnUse" />
    <radialGradient
       inkscape:collect="always"
       xlink:href="#linearGradient3740"
       id="radialGradient3742"
       cx="33.089491"
       cy="31.864707"
       fx="33.089491"
       fy="31.864707"
       r="24.710861"
       gradientTransform="matrix(1,0,0,0.96532965,0,1.1047604)"
       gradientUnits="userSpaceOnUse" />
  </defs>
  <sodipodi:namedview
     id="base"
     pagecolor="#ffffff"
     bordercolor="#666666"
     borderopacity="1.0"
     inkscape:pageopacity="0.0"
     inkscape:pageshadow="2"
     inkscape:zoom="0.49497475"
     inkscape:cx="18.86708"
     inkscape:cy="-179.65442"
     inkscape:document-units="mm"
     inkscape:current-layer="layer1"
     inkscape:document-rotation="0"
     showgrid="false"
     units="px"
     inkscape:lockguides="false"
     showguides="false"
     inkscape:window-width="1708"
     inkscape:window-height="876"
     inkscape:window-x="46"
     inkscape:window-y="772"
     inkscape:window-maximized="0"
     inkscape:snap-nodes="false"
     inkscape:snap-global="false" />
  <metadata
     id="metadata103">
    <rdf:RDF>
      <cc:Work
         rdf:about="">
        <dc:format>image/svg+xml</dc:format>
        <dc:type
           rdf:resource="http://purl.org/dc/dcmitype/StillImage" />
        <dc:title></dc:title>
      </cc:Work>
    </rdf:RDF>
  </metadata>
  <g
     inkscape:label="Layer 1"
     inkscape:groupmode="layer"
     id="layer1">
    <ellipse
       style="opacity:1;fill:url(#linearGradient3262);fill-opacity:1;stroke:url(#radialGradient3298);stroke-width:2.636;stroke-miterlimit:4;stroke-dasharray:none;stroke-opacity:1"
       id="path3209"
       cx="31.56101"
       cy="31.93899"
       rx="30.427082"
       ry="29.860119" />
    <path
       style="fill:url(#radialGradient3742);stroke:#000000;stroke-width:0.105936;stroke-linecap:butt;stroke-linejoin:miter;stroke-miterlimit:4;stroke-dasharray:none;stroke-opacity:1;fill-opacity:1"
       d="m 17.873464,29.645117 c -1.927236,-0.217584 -3.6403,-0.435183 -4.38978,-0.108797 -0.749479,0.326386 -1.820206,1.414357 -3.426195,1.196767 L 8.4514559,30.515479 c 0,0 0.4282772,1.523152 1.6060331,1.74075 1.177757,0.217583 0.85651,1.523148 2.355468,0.870372 1.49896,-0.652782 2.569686,-1.414356 3.426195,-0.979174 0.856554,0.435189 1.498937,0.543985 1.177756,1.087969 -0.321202,0.543983 -0.321202,0.652778 -0.963583,1.087963 -0.642473,0.435188 -0.856577,0.870368 -1.606057,0.870368 -0.749479,0 -1.498959,0.217607 -1.498959,0.217607 0,0 -0.428277,0.108798 0.535375,0.543979 0.963584,0.435186 1.60599,0.435186 2.248439,0.108799 0.642381,-0.326394 0.74948,-0.435188 1.713064,-0.108799 0.963584,0.326392 1.498958,0 1.820138,0.652777 0.321202,0.652779 0.535376,1.087967 -1.177758,1.414355 -1.713063,0.326394 -1.498935,0.108798 -2.569616,1.196763 -1.070683,1.087962 -1.606034,1.305555 -2.462543,2.17593 -0.856577,0.87037 -1.49896,0.761576 -1.284855,2.17592 0.21415,1.414357 0.21415,2.175931 0.21415,2.175931 0,0 0.642404,-0.979164 1.820161,-1.414356 1.177757,-0.435179 1.284787,-0.108798 2.141341,-1.087961 0.856555,-0.979164 0.107188,-0.652778 1.284854,-1.849534 1.177689,-1.196762 0.963583,-1.414355 1.927168,-1.740747 0.963652,-0.326387 1.177757,-1.196757 1.820208,-0.217583 0.642404,0.979168 1.070682,0.761576 -0.107188,1.849539 -1.177759,1.087963 -2.034333,2.175927 -2.034333,2.175927 h 1.284852 c 0,0 0.535307,-1.087964 1.177757,-1.196759 0.642382,-0.108797 2.462546,-0.870368 2.462546,-0.870368 l 0.321202,1.30555 c 0,0 -1.713063,1.523152 -2.24844,1.740749 -0.535308,0.217584 -1.391859,2.284725 -1.284788,2.828702 0.10696,0.543984 1.070684,1.305559 -0.428277,1.849544 -1.498957,0.54398 -1.927235,1.631947 -1.927235,1.631947 0,0 0,0.435182 1.070661,0.543982 1.070679,0.108809 1.820158,1.41435 2.569639,0.326388 0.74948,-1.087962 1.177755,-1.52315 1.391931,-2.284724 0.214149,-0.761578 -0.1072,-1.523153 0.214149,-2.067137 0.321203,-0.543977 0.107198,-1.196754 0.963585,-1.631945 0.856577,-0.435182 0.21415,-0.761576 1.284852,-0.870371 1.070685,-0.108797 1.391863,-1.305558 1.713064,0 0.321247,1.305562 0.749482,0.65278 0,2.067136 -0.74948,1.414355 -1.498956,2.284724 -0.428208,1.958333 1.070659,-0.326387 2.248416,0.108798 2.248416,-0.870373 0,-0.979167 -0.214149,-0.979167 0.214149,-1.740741 0.428279,-0.761575 0,-1.196762 0.749457,-1.52315 0.74948,-0.326395 0.74948,-0.979165 0.856578,0.326388 0.106959,1.305558 -0.1072,1.523148 0.214149,2.611118 0.321205,1.087961 0.214151,1.305551 0.535379,2.502316 0.321176,1.196762 0.856483,0.870372 0.214149,2.067135 -0.642382,1.196757 -0.963586,0.979165 -0.428279,2.067129 0.535354,1.087967 0.535354,1.414353 1.070662,1.414353 0.535373,0 1.284852,0.217608 1.606055,-0.870371 0.321179,-1.087962 0.321179,-1.305559 0.535353,-2.719907 0.21415,-1.414354 0.535307,-1.305559 -0.21415,-2.61112 -0.749458,-1.305558 -1.177757,-1.196755 -0.856489,-2.067134 0.321181,-0.870371 -0.642449,-0.761574 0.428212,-1.087961 1.070748,-0.326386 0.96365,-0.65278 1.713131,0.326387 0.749479,0.979173 0,1.087968 0.642405,1.958337 0.642381,0.870371 0.749456,1.414356 1.177756,1.631947 0.428277,0.217583 0.856554,1.305558 0.428277,-0.108798 -0.428277,-1.414357 0.107188,-1.631946 -0.107199,-2.393522 -0.21415,-0.761576 -0.749479,-0.87037 -0.856557,-1.740743 -0.106959,-0.870376 -0.642379,-0.761574 0.10696,-1.414354 0.749479,-0.652778 0.3212,-1.414354 1.07068,0.217583 0.749482,1.631945 0.428279,2.175928 1.284857,2.393521 0.856554,0.217583 0.214149,-0.435182 1.713063,0.870371 1.498958,1.30556 2.034311,2.067134 2.034311,2.067134 l 0.321202,0.435188 0.856554,0.108798 c 0,0 0.321202,0 0.535307,-1.305559 0.21415,-1.305558 0.107199,-0.87037 -0.642383,-1.740743 -0.749478,-0.87037 -0.428276,-0.326394 -1.284853,-1.196762 -0.856486,-0.87037 -0.642382,-0.761576 -1.498959,-1.414355 -0.856487,-0.652782 -1.070659,-0.217584 -1.284764,-1.087961 -0.214149,-0.870372 -0.321201,-0.652782 -0.321201,-1.305561 0,-0.652777 -1.927237,-1.740739 0,-0.870367 1.927235,0.870367 1.498959,1.087958 2.783744,1.19676 1.284832,0.108798 0.642449,0.870371 1.498936,0.108798 0.856578,-0.761575 1.927236,-0.326394 0.856578,-1.087967 -1.070682,-0.761574 -0.535376,-0.543977 -1.606058,-0.870372 -1.070658,-0.326385 -1.498936,-0.652778 -1.498936,-0.652778 0,0 -0.535305,0.108799 -0.428299,-0.543977 0.107199,-0.65278 0.535374,-1.305559 0.535374,-1.305559 0,0 0,-0.979168 1.177758,-0.217584 1.177756,0.761578 1.498958,0.652774 1.927235,1.196759 0.428278,0.543985 0.106958,0.761575 1.070682,1.087968 0.963584,0.326386 1.177756,0.543978 1.606034,0.543978 0.428232,0 2.034266,-0.326388 2.034266,-0.326388 0,0 0.74948,0.543985 1.177756,0.870373 0.428276,0.326386 0.856555,1.196759 1.284854,1.631943 0.42821,0.435188 0.749481,0.870371 0.963585,0.435188 0.214149,-0.435188 1.177757,-0.652779 0.321202,-2.175929 -0.856577,-1.523148 -0.107199,-1.305558 -1.498959,-2.067133 -1.391884,-0.761576 -1.820161,-1.087963 -2.783745,-1.196759 -0.963652,-0.108797 -1.713131,0.761578 -2.569687,0 -0.856509,-0.761573 -0.428232,0 -1.391861,-1.087967 -0.963606,-1.08796 -1.177779,-0.435182 -1.284784,-1.414355 -0.1072,-0.979165 -0.749482,-1.740742 0.321178,-1.305552 1.070683,0.435181 0.642405,0.870369 2.141364,0.979165 1.498936,0.108799 1.606034,0.979166 2.03431,0.108799 0.428232,-0.870372 0.963585,-1.196764 -0.321247,-1.414356 -1.284787,-0.217582 -2.141364,-0.543985 -2.56964,-0.761575 -0.428277,-0.217583 -1.713064,-0.543983 -1.070659,-0.87037 0.642382,-0.326388 0.963629,-0.652779 2.676715,0.108797 1.713063,0.761575 1.713063,0.761575 3.104993,0.87037 1.391862,0.108799 1.713063,0.108799 3.426194,-0.217583 1.713064,-0.326388 0.721735,0.09213 1.820138,-0.435188 l 1.93689,-0.929877 -0.759119,-0.81085 c 0,0 -0.107326,-0.326156 -1.820207,-0.652777 -2.705436,-0.51589 -3.533226,1.196762 -4.068577,0.97917 -0.535307,-0.217605 -0.85651,-0.543983 -2.355469,-1.087968 -1.498957,-0.543984 0,-1.196757 -2.46261,-0.761575 -2.462543,0.435188 -2.997898,0.326395 -2.783723,-0.652777 0.21415,-0.979168 0,-1.196757 0.856487,-1.305555 0.856577,-0.108798 0.107198,0.652774 1.606056,-0.32639 1.498959,-0.979169 1.606034,-1.196759 2.462543,-0.761579 0.856554,0.43519 2.141409,1.087969 2.248415,-0.108798 0.1072,-1.196763 -1.070659,-1.087962 -1.713063,-1.087962 -0.642381,0 -2.248415,0 -2.997895,0.108799 -0.749479,0.108798 -0.321202,0.543976 -1.498959,0.217583 -1.177759,-0.326386 -2.034334,0.761575 -1.391884,-0.217583 0.642405,-0.979173 0.321204,-0.761577 0.963608,-1.087968 0.64238,-0.326388 0,0.543982 2.03431,-0.435183 2.034267,-0.979174 2.248439,-1.087969 2.89082,-2.393522 0.642404,-1.305559 0.535376,-1.196766 1.070681,-1.849543 0.535376,-0.652781 0.963654,-0.543984 1.713133,-0.870372 0.749478,-0.326386 1.391861,-0.870371 0.856486,-1.196762 -0.535307,-0.326387 -1.284763,-0.652773 -2.248415,-0.652773 -0.963584,0 -2.248438,0.326386 -2.676717,0.652773 -0.42823,0.326391 -1.391883,1.305559 -2.034265,1.631949 -0.642381,0.326388 -1.177757,0.761576 -1.927236,0.979169 -0.749479,0.217584 -1.284855,0.108797 -1.927236,0.43518 -0.642404,0.326395 -1.606035,0.435191 -1.606035,0.435191 h -0.535307 c 0,0 -0.107188,-0.435191 0.535307,-1.196766 0.642451,-0.761573 0.428277,-1.305551 0.856555,-1.631945 0.428278,-0.326387 0.963651,-1.52315 1.284855,-1.958333 0.321179,-0.435187 0.963581,-1.414353 0.963581,-1.414353 l -2.46254,1.087965 c 0,0 -1.070682,1.523146 -2.034333,2.284721 -0.963585,0.761575 -0.963585,1.305562 -1.391862,1.305562 -0.428278,0 -1.498959,1.087958 -1.070682,0 0.428277,-1.087964 0.642404,-2.284727 0.642404,-2.284727 l 0.214151,-1.305556 c 0,0 -0.106959,-0.870372 0.214149,-1.414359 0.321205,-0.543978 1.391863,-2.393518 1.391863,-2.393518 0,0 0.856578,-0.326387 0.856578,-1.523151 0,-1.1967602 -0.1072,-2.6111152 -0.1072,-2.6111152 0,0 -1.177755,0.7615748 -1.606033,1.0879608 -0.428232,0.3263942 -0.74948,0.8703724 -1.605988,1.7407524 -0.856555,0.870367 -1.606033,1.414349 -1.927237,2.175922 -0.321203,0.761577 -0.428277,1.958339 -0.321203,2.502323 0.106959,0.543976 -0.1072,1.849534 -0.642452,2.067131 -0.535305,0.217606 -1.284783,0.32639 -1.284783,0.32639 0,0 -0.535353,0.435182 -1.177756,-0.870373 -0.642382,-1.305557 -0.535352,-2.828709 -0.535352,-3.59028 0,-0.761576 -0.74948,-1.958341 -1.177713,-0.870372 -0.428277,1.087961 -0.642449,2.61111 -0.535351,3.046297 0.107187,0.435183 0.428277,1.849538 -0.321203,1.740741 -0.749478,-0.108797 -1.284853,-0.217582 -1.498959,-0.761572 -0.21415,-0.543986 -0.107198,-1.305559 0,-1.958335 0.107188,-0.652779 -0.428277,-2.067131 -0.963652,-2.284723 -0.535305,-0.217605 -1.391861,-0.761574 -1.498957,-1.196764 -0.106959,-0.43519 -0.963585,-1.8495389 -0.963585,-1.8495389 0,0 -1.177758,-1.0879686 -1.177758,-0.6527781 0,0.4351796 -0.428277,2.937507 -0.428277,2.937507 0,0 1.284832,1.414347 1.391929,2.067127 0.106959,0.652781 -0.214149,1.414356 -0.107188,2.067134 0.107188,0.652781 0.428301,1.631943 0.963608,2.067134 0.535348,0.435181 1.284828,0.979165 1.177755,1.414352 -0.1072,0.435185 0.107188,1.305558 -0.963583,1.414349 -1.070687,0.108798 -0.642478,0.326395 -1.927241,-0.543976 -1.284854,-0.870373 -2.034334,-1.740747 -2.034334,-1.740747 l -1.391862,-1.196759 -0.749478,-0.108799 c 0,0 0.428277,0.54398 1.07066,1.414357 0.642403,0.870371 0.749478,1.196758 1.177778,1.740743 0.428277,0.543984 1.177755,1.305558 1.177755,1.305558 0,0 0.535309,1.196759 -0.107187,1.196759 -0.64238,0 0.535376,0.652778 -1.498957,-0.108799 -2.034244,-0.761575 -2.676715,-2.067133 -2.676715,-2.067133 0,0 -0.32118,-0.979169 -1.07066,-1.196759 -0.74948,-0.217606 -0.963585,-0.217606 -1.927236,-0.108798 -0.963585,0.108798 -0.85651,0.217582 -1.498959,-0.217608 -0.642405,-0.435179 -1.927237,-1.849534 -1.927237,-1.849534 0,0 -0.9635833,0.87037 -0.106959,1.523148 0.856508,0.652781 -0.64245,0.979169 1.07068,1.740743 1.713064,0.761574 1.391862,0.652781 2.248415,0.870371 0.856578,0.217606 0.535308,-0.326387 1.820163,0.543985 1.284853,0.870371 1.391861,1.414352 1.927235,1.740739 0.535308,0.326394 0.642405,0.217606 1.070682,0.543984 0.428278,0.326387 0.963584,1.196766 0.963584,1.196766 l 0.107188,1.087962 c 0,0 0.321202,0.326386 -0.749479,0.326386 -1.07066,0 -1.713064,0.108798 -2.783722,-0.326386 -1.070751,-0.43519 -1.713133,-0.870373 -2.141411,-0.870373 -0.428277,0 -1.284786,-0.652779 -1.07068,0.108799 0.21415,0.761576 0,1.523149 1.07068,1.849535 1.07066,0.326392 1.49896,0.435191 2.56962,0.543984 1.070748,0.108799 0.749479,-0.543984 1.391929,0.326395 0.642405,0.870369 0.856508,1.087959 0.856508,1.087959 l -0.428232,0.43519 z"
       id="path3669-7"
       sodipodi:nodetypes="cscccscccscccsccscccsscccccccccccscsscccscscscscccccsccsccscsscccsscccccccccssscsscccsscscsccccsccccscssssscsccscsccscscssscscccscscssscccsccccssccccscccscsccsccscscccscccccccccccccscccscccccscsccscsccscccc" />
    <rect
       style="opacity:1;fill:none;fill-opacity:1;stroke:#333333;stroke-width:0.565;stroke-opacity:1;stroke-miterlimit:4;stroke-dasharray:none"
       id="rect3207"
       width="61.988094"
       height="61.988094"
       x="0.75595242"
       y="0.94494045" />
    <ellipse
       style="opacity:1;fill:#ffff00;fill-opacity:1;stroke:#000000;stroke-width:0.065;stroke-linecap:round;stroke-linejoin:round;stroke-miterlimit:4;stroke-dasharray:none;stroke-opacity:1"
       id="path3591"
       cx="30.994049"
       cy="31.844494"
       rx="11.622767"
       ry="11.811756" />
    <path
       style="fill:none;stroke:#000000;stroke-width:0.264583px;stroke-linecap:butt;stroke-linejoin:miter;stroke-opacity:1"
       d="m 296.85305,76.114954 c -0.85045,-0.09449 -1.60639,-0.188987 -1.93712,-0.04725 -0.33073,0.14174 -0.80322,0.614212 -1.51191,0.519719 -0.70871,-0.0945 -0.70871,-0.0945 -0.70871,-0.0945 0,0 0.18899,0.661458 0.70871,0.755954 0.51972,0.09449 0.37796,0.661458 1.03942,0.377976 0.66146,-0.283483 1.13395,-0.614212 1.51191,-0.425225 0.37798,0.188989 0.66145,0.236236 0.51972,0.472472 -0.14174,0.236235 -0.14174,0.283482 -0.42521,0.472469 -0.28351,0.188989 -0.37799,0.377975 -0.70872,0.377975 -0.33073,0 -0.66146,0.0945 -0.66146,0.0945 0,0 -0.18899,0.04725 0.23625,0.236234 0.42521,0.188989 0.70869,0.188989 0.99219,0.04725 0.28347,-0.141743 0.33073,-0.188989 0.75594,-0.04725 0.42521,0.141742 0.66146,0 0.80319,0.283482 0.14174,0.283483 0.23625,0.472472 -0.51972,0.614212 -0.75594,0.141742 -0.66145,0.04725 -1.13392,0.519718 -0.47247,0.472469 -0.70871,0.566963 -1.08667,0.944941 -0.37799,0.377976 -0.66146,0.330729 -0.56698,0.944938 0.0945,0.614212 0.0945,0.944941 0.0945,0.944941 0,0 0.28348,-0.425222 0.8032,-0.614212 0.51972,-0.188986 0.56695,-0.04725 0.94493,-0.472469 0.37798,-0.425222 0.0473,-0.283482 0.56698,-0.803198 0.51969,-0.519718 0.42521,-0.614212 0.85042,-0.755954 0.42524,-0.14174 0.51972,-0.519716 0.80322,-0.09449 0.28348,0.425223 0.47247,0.33073 -0.0473,0.803199 -0.51972,0.472471 -0.89771,0.944941 -0.89771,0.944941 h 0.56698 c 0,0 0.23622,-0.47247 0.51972,-0.519716 0.28347,-0.04725 1.08667,-0.377976 1.08667,-0.377976 l 0.14174,0.566962 c 0,0 -0.75594,0.661459 -0.99219,0.755955 -0.23622,0.09449 -0.6142,0.992187 -0.56695,1.22842 0.0472,0.236236 0.47247,0.566965 -0.18899,0.803201 -0.66146,0.236234 -0.85045,0.708705 -0.85045,0.708705 0,0 0,0.188987 0.47246,0.236236 0.47247,0.04725 0.8032,0.614209 1.13393,0.14174 0.33073,-0.472469 0.51972,-0.661458 0.61423,-0.992187 0.0945,-0.33073 -0.0473,-0.661459 0.0945,-0.897695 0.14174,-0.236233 0.0473,-0.519715 0.42521,-0.708705 0.37799,-0.188986 0.0945,-0.330729 0.56698,-0.377975 0.47247,-0.04725 0.6142,-0.566965 0.75594,0 0.14176,0.566965 0.33073,0.283482 0,0.897694 -0.33073,0.614212 -0.66146,0.992187 -0.18896,0.850445 0.47246,-0.14174 0.99218,0.04725 0.99218,-0.377976 0,-0.425223 -0.0945,-0.425223 0.0945,-0.755952 0.18899,-0.330729 0,-0.519718 0.33072,-0.661458 0.33073,-0.141743 0.33073,-0.425222 0.37799,0.14174 0.0472,0.566965 -0.0473,0.661458 0.0945,1.13393 0.14174,0.472469 0.0945,0.566962 0.23625,1.086681 0.14173,0.519718 0.37795,0.377976 0.0945,0.897694 -0.28347,0.519716 -0.42521,0.425222 -0.18899,0.897692 0.23624,0.472471 0.23624,0.614211 0.47246,0.614211 0.23625,0 0.56698,0.0945 0.70872,-0.377976 0.14173,-0.472469 0.14173,-0.566965 0.23624,-1.181174 0.0945,-0.614211 0.23622,-0.566965 -0.0945,-1.13393 -0.33072,-0.566965 -0.51972,-0.519715 -0.37795,-0.897694 0.14173,-0.377976 -0.2835,-0.330729 0.18896,-0.472469 0.4725,-0.14174 0.42524,-0.283483 0.75597,0.14174 0.33073,0.425225 0,0.472472 0.28348,0.850447 0.28347,0.377976 0.33072,0.614212 0.51972,0.708705 0.18899,0.09449 0.37798,0.566965 0.18899,-0.04725 -0.18899,-0.614212 0.0473,-0.708705 -0.0473,-1.039434 -0.0945,-0.33073 -0.33073,-0.377976 -0.37798,-0.755952 -0.0472,-0.377978 -0.28347,-0.330729 0.0472,-0.614212 0.33073,-0.283482 0.14174,-0.614211 0.47247,0.09449 0.33073,0.708705 0.18899,0.94494 0.56698,1.039434 0.37798,0.09449 0.0945,-0.188987 0.75594,0.377976 0.66146,0.566965 0.8977,0.897694 0.8977,0.897694 l 0.14174,0.188989 0.37798,0.04725 c 0,0 0.14174,0 0.23622,-0.566965 0.0945,-0.566965 0.0473,-0.377976 -0.28347,-0.755952 -0.33073,-0.377976 -0.18899,-0.141743 -0.56698,-0.519718 -0.37795,-0.377976 -0.28347,-0.33073 -0.66146,-0.614212 -0.37795,-0.283483 -0.47246,-0.09449 -0.56694,-0.472469 -0.0945,-0.377976 -0.14174,-0.283483 -0.14174,-0.566965 0,-0.283483 -0.85045,-0.755952 0,-0.377976 0.85045,0.377976 0.66146,0.472469 1.22841,0.519718 0.56697,0.04725 0.2835,0.377976 0.66145,0.04725 0.37799,-0.330729 0.85045,-0.141743 0.37799,-0.472472 -0.47247,-0.330729 -0.23625,-0.236233 -0.70872,-0.377976 -0.47246,-0.141739 -0.66145,-0.283482 -0.66145,-0.283482 0,0 -0.23622,0.04725 -0.189,-0.236233 0.0473,-0.283483 0.23625,-0.566965 0.23625,-0.566965 0,0 0,-0.425223 0.51972,-0.09449 0.51972,0.33073 0.66146,0.28348 0.85045,0.519716 0.18899,0.236236 0.0472,0.330729 0.47247,0.472472 0.42521,0.14174 0.51972,0.236233 0.70871,0.236233 0.18897,0 0.89768,-0.14174 0.89768,-0.14174 0,0 0.33073,0.236236 0.51972,0.377976 0.18899,0.14174 0.37798,0.519718 0.56698,0.708705 0.18896,0.188989 0.33073,0.377976 0.42521,0.188989 0.0945,-0.188989 0.51972,-0.283482 0.14174,-0.944941 -0.37799,-0.661458 -0.0473,-0.566965 -0.66146,-0.897694 -0.61421,-0.330729 -0.8032,-0.472469 -1.22841,-0.519716 -0.42524,-0.04725 -0.75597,0.33073 -1.13395,0 -0.37796,-0.330729 -0.18897,0 -0.6142,-0.472471 -0.42522,-0.472469 -0.51973,-0.188987 -0.56695,-0.614212 -0.0473,-0.425222 -0.33073,-0.755952 0.14173,-0.566962 0.47247,0.188986 0.28348,0.377975 0.94494,0.425222 0.66145,0.04725 0.70871,0.425222 0.8977,0.04725 0.18897,-0.377976 0.42521,-0.519719 -0.14176,-0.614212 -0.56695,-0.09449 -0.94494,-0.236236 -1.13393,-0.330729 -0.18899,-0.09449 -0.75594,-0.236236 -0.47246,-0.377976 0.28347,-0.14174 0.42523,-0.283482 1.18118,0.04725 0.75594,0.330729 0.75594,0.330729 1.37017,0.377975 0.6142,0.04725 0.75594,0.04725 1.51191,-0.09449 0.75594,-0.14174 -0.14177,-0.09449 0.80319,-0.188989 0.94493,-0.09449 0.94493,-0.09449 0.94493,-0.09449 l -0.42521,-0.661459 c 0,0 0.37796,-0.566965 -0.80322,-0.283482 -1.18115,0.283482 -1.55914,0.519718 -1.79538,0.425225 -0.23622,-0.0945 -0.37796,-0.236236 -1.03942,-0.472472 -0.66146,-0.236236 0,-0.519716 -1.0867,-0.330729 -1.08667,0.188989 -1.32291,0.141743 -1.2284,-0.283482 0.0945,-0.425223 0,-0.519716 0.37795,-0.566963 0.37799,-0.04725 0.0473,0.28348 0.70872,-0.141742 0.66146,-0.425223 0.70871,-0.519716 1.08667,-0.33073 0.37798,0.18899 0.94496,0.472472 0.99218,-0.04725 0.0473,-0.519719 -0.47246,-0.472469 -0.75594,-0.472469 -0.28347,0 -0.99218,0 -1.32291,0.04725 -0.33073,0.04725 -0.14174,0.236233 -0.66146,0.09449 -0.51972,-0.14174 -0.89771,0.330729 -0.61421,-0.09449 0.28348,-0.425225 0.14174,-0.330729 0.42522,-0.472471 0.28347,-0.14174 0,0.236235 0.8977,-0.188987 0.89768,-0.425225 0.99219,-0.472472 1.27566,-1.039434 0.28348,-0.566965 0.23625,-0.519719 0.47247,-0.803201 0.23625,-0.283483 0.42524,-0.236236 0.75597,-0.377976 0.33073,-0.14174 0.6142,-0.377976 0.37795,-0.519718 -0.23622,-0.14174 -0.56694,-0.28348 -0.99218,-0.28348 -0.42521,0 -0.99219,0.14174 -1.18118,0.28348 -0.18897,0.141742 -0.61421,0.566965 -0.89768,0.708707 -0.28347,0.14174 -0.51972,0.330729 -0.85045,0.425223 -0.33073,0.09449 -0.56698,0.04725 -0.85045,0.188986 -0.28348,0.141743 -0.70871,0.18899 -0.70871,0.18899 h -0.23622 c 0,0 -0.0473,-0.18899 0.23622,-0.519719 0.2835,-0.330729 0.18899,-0.566962 0.37798,-0.708705 0.18899,-0.14174 0.42524,-0.661458 0.56698,-0.850445 0.14173,-0.188989 0.42521,-0.614211 0.42521,-0.614211 l -1.08667,0.472469 c 0,0 -0.47247,0.661458 -0.89771,0.992187 -0.42521,0.330729 -0.42521,0.566965 -0.6142,0.566965 -0.18899,0 -0.66146,0.472469 -0.47247,0 0.18899,-0.472469 0.28348,-0.992187 0.28348,-0.992187 l 0.0945,-0.566965 c 0,0 -0.0472,-0.377976 0.0945,-0.614212 0.14174,-0.236233 0.6142,-1.039434 0.6142,-1.039434 0,0 0.37799,-0.14174 0.37799,-0.661458 0,-0.519716 -0.0473,-1.133928 -0.0473,-1.133928 0,0 -0.51972,0.330729 -0.70871,0.472469 -0.18897,0.141743 -0.33073,0.377976 -0.70869,0.755955 -0.37798,0.377975 -0.70871,0.614209 -0.85045,0.944938 -0.14174,0.330729 -0.18899,0.850447 -0.14174,1.086683 0.0472,0.236233 -0.0473,0.803198 -0.2835,0.897692 -0.23622,0.0945 -0.56695,0.141742 -0.56695,0.141742 0,0 -0.23624,0.188987 -0.51972,-0.377976 -0.28347,-0.566965 -0.23624,-1.228423 -0.23624,-1.559152 0,-0.330729 -0.33073,-0.850448 -0.5197,-0.377976 -0.18899,0.472469 -0.2835,1.133928 -0.23624,1.322917 0.0473,0.188986 0.18899,0.803198 -0.14174,0.755951 -0.33073,-0.04725 -0.56698,-0.09449 -0.66146,-0.330729 -0.0945,-0.236236 -0.0473,-0.566965 0,-0.850445 0.0473,-0.283482 -0.18899,-0.897694 -0.42524,-0.992187 -0.23622,-0.0945 -0.6142,-0.330729 -0.66146,-0.519719 -0.0472,-0.188989 -0.42521,-0.803198 -0.42521,-0.803198 0,0 -0.51972,-0.472472 -0.51972,-0.283482 0,0.188986 -0.18899,1.27567 -0.18899,1.27567 0,0 0.56697,0.614209 0.61423,0.897691 0.0472,0.283483 -0.0945,0.614212 -0.0473,0.897694 0.0473,0.283483 0.189,0.708705 0.42522,0.897695 0.23624,0.188986 0.56697,0.425222 0.51972,0.614211 -0.0473,0.188987 0.0473,0.566963 -0.42521,0.614209 -0.47247,0.04725 -0.28351,0.141743 -0.85045,-0.236233 -0.56698,-0.377976 -0.89771,-0.755954 -0.89771,-0.755954 l -0.6142,-0.519716 -0.33073,-0.04725 c 0,0 0.18899,0.236234 0.47246,0.614212 0.28348,0.377976 0.33073,0.519716 0.51973,0.755952 0.18899,0.236236 0.51972,0.566965 0.51972,0.566965 0,0 0.23622,0.519716 -0.0473,0.519716 -0.28347,0 0.23625,0.283482 -0.66146,-0.04725 -0.89767,-0.330729 -1.18118,-0.897694 -1.18118,-0.897694 0,0 -0.14173,-0.425223 -0.47246,-0.519716 -0.33073,-0.0945 -0.42521,-0.0945 -0.85045,-0.04725 -0.42521,0.04725 -0.37796,0.09449 -0.66146,-0.0945 -0.28348,-0.188986 -0.85045,-0.803198 -0.85045,-0.803198 0,0 -0.42521,0.377976 -0.0472,0.661458 0.37796,0.283483 -0.2835,0.425223 0.47247,0.755952 0.75594,0.330729 0.6142,0.283483 0.99218,0.377976 0.37799,0.0945 0.23622,-0.14174 0.8032,0.236236 0.56698,0.377976 0.6142,0.614211 0.85045,0.755951 0.23622,0.141743 0.28348,0.0945 0.47247,0.236236 0.18899,0.14174 0.42521,0.519719 0.42521,0.519719 l 0.0473,0.472469 c 0,0 0.14174,0.14174 -0.33073,0.14174 -0.47246,0 -0.75594,0.04725 -1.2284,-0.14174 -0.4725,-0.18899 -0.75597,-0.377976 -0.94496,-0.377976 -0.18899,0 -0.56695,-0.283483 -0.47247,0.04725 0.0945,0.330729 0,0.661458 0.47247,0.803198 0.47246,0.141742 0.66146,0.188989 1.13392,0.236236 0.4725,0.04725 0.33073,-0.236236 0.61423,0.141742 0.28348,0.377976 0.37796,0.472469 0.37796,0.472469 l -0.18897,0.18899 z"
       id="path3669" />
  </g>
  <g
     inkscape:groupmode="layer"
     id="layer2"
     inkscape:label="Layer 2" />
</svg>
